<svg id="SvgjsSvg1000" xmlns="http://www.w3.org/2000/svg" version="1.1" xmlns:xlink="http://www.w3.org/1999/xlink" xmlns:svgjs="http://svgjs.com/svgjs" width="43" height="31"><defs id="SvgjsDefs1001"></defs><path id="SvgjsPath1007" d="M530.02 2727.8C528.37 2727.8 526.71 2727.3 525.28 2726.26C523.56 2725.01 522.42 2723.1600000000003 522.1 2721.0600000000004C521.77 2718.9700000000003 522.2900000000001 2716.8700000000003 523.5500000000001 2715.1600000000003C524.82 2713.4400000000005 526.69 2712.32 528.8100000000001 2712.0000000000005L529.21 2714.6200000000003C527.8000000000001 2714.8300000000004 526.5600000000001 2715.5800000000004 525.71 2716.7200000000003C524.87 2717.86 524.52 2719.26 524.74 2720.6600000000003C524.96 2722.0600000000004 525.71 2723.2900000000004 526.87 2724.13C529.25 2725.85 532.6 2725.34 534.35 2722.9900000000002L536.5 2724.55C534.93 2726.67 532.49 2727.8 530.02 2727.8Z " fill="#ffffff" fill-opacity="1" transform="matrix(1,0,0,1,-522,-2697)"></path><path id="SvgjsPath1008" d="M556.02 2727.09C554.8199999999999 2727.09 553.63 2726.82 552.52 2726.29C550.59 2725.36 549.14 2723.74 548.4399999999999 2721.74C547.7399999999999 2719.7299999999996 547.88 2717.58 548.81 2715.6699999999996L551.2199999999999 2716.8299999999995C550.5899999999999 2718.0999999999995 550.5099999999999 2719.5399999999995 550.9699999999999 2720.8699999999994C551.4399999999999 2722.2099999999996 552.3999999999999 2723.2899999999995 553.6899999999999 2723.9099999999994C554.9799999999999 2724.5299999999993 556.43 2724.609999999999 557.78 2724.149999999999C559.13 2723.689999999999 560.22 2722.729999999999 560.85 2721.459999999999C561.47 2720.189999999999 561.5600000000001 2718.749999999999 561.09 2717.419999999999C560.62 2716.079999999999 559.6600000000001 2714.999999999999 558.37 2714.379999999999L559.54 2711.999999999999C561.4699999999999 2712.929999999999 562.92 2714.5499999999993 563.62 2716.5499999999993C564.32 2718.5599999999995 564.19 2720.709999999999 563.25 2722.6199999999994C562.31 2724.5299999999993 560.68 2725.9599999999996 558.65 2726.6599999999994C557.79 2726.9499999999994 556.91 2727.0899999999992 556.02 2727.0899999999992Z " fill="#ffffff" fill-opacity="1" transform="matrix(1,0,0,1,-522,-2697)"></path><path id="SvgjsPath1009" d="M553.58 2705L557.6 2719.57L555.01 2720.26L551 2705.7000000000003L553.58 2705.0000000000005Z " fill="#ffffff" fill-opacity="1" transform="matrix(1,0,0,1,-522,-2697)"></path><path id="SvgjsPath1010" d="M557.35 2697L558 2699.57L552.65 2700.8900000000003L552 2698.3300000000004L557.35 2697.0000000000005Z " fill="#ffffff" fill-opacity="1" transform="matrix(1,0,0,1,-522,-2697)"></path><path id="SvgjsPath1011" d="M541.03 2702L541.47 2704.61L533.44 2705.94L533 2703.33Z " fill="#ffffff" fill-opacity="1" transform="matrix(1,0,0,1,-522,-2697)"></path><path id="SvgjsPath1012" d="M527 2721.12L527 2717.81L538.55 2709.2999999999997L551.93 2703.9999999999995L552.4399999999999 2705.2599999999998L553.4999999999999 2706.0299999999997L542.3999999999999 2721.12ZM541.04 2718.47L548.63 2708.16L539.7 2711.69L530.57 2718.4700000000003Z " fill="#ffffff" fill-opacity="1" transform="matrix(1,0,0,1,-522,-2697)"></path><path id="SvgjsPath1013" d="M551 2702L553.68 2702L553.68 2705.97L551 2705.97Z " fill="#ffffff" fill-opacity="1" transform="matrix(1,0,0,1,-522,-2697)"></path></svg>