<svg id="SvgjsSvg1014" xmlns="http://www.w3.org/2000/svg" version="1.1" xmlns:xlink="http://www.w3.org/1999/xlink" xmlns:svgjs="http://svgjs.com/svgjs" width="25" height="24"><defs id="SvgjsDefs1015"></defs><path id="SvgjsPath1016" d="M901.61 351.91C900.35 351.91 899.66 353.33000000000004 900.39 354.31C900.68 354.71 901.14 354.91 901.59 354.91C902.96 354.91 903.59 353.26000000000005 902.6600000000001 352.34000000000003C902.3800000000001 352.05 901.9900000000001 351.91 901.6100000000001 351.91ZM885.62 369.01C885.33 368.62 884.88 368.42 884.42 368.42C884.05 368.42 883.68 368.55 883.39 368.81C883.28 368.92 883.1899999999999 369.03000000000003 883.12 369.16C882.79 369.73 882.85 370.5 883.35 370.99C883.63 371.27 884.02 371.41 884.4 371.41C884.8199999999999 371.41 885.24 371.24 885.53 370.91C885.6 370.84000000000003 885.66 370.76000000000005 885.7099999999999 370.67C885.9999999999999 370.16 885.9799999999999 369.5 885.6199999999999 369.01ZM887.63 361.44C887.17 361.95 887.13 362.71999999999997 887.5 363.29C887.84 363.76000000000005 888.42 364.01000000000005 889 363.91C890.52 363.63000000000005 890.69 361.56 889.24 361.02000000000004C888.65 360.82000000000005 888.01 361.01000000000005 887.63 361.44000000000005ZM896.23 359.8C895.62 360.38 895.61 361.38 896.2 361.96000000000004C896.48 362.24 896.87 362.38000000000005 897.25 362.38000000000005C897.51 362.38000000000005 897.77 362.32000000000005 898 362.19000000000005C898.41 361.94000000000005 898.71 361.52000000000004 898.74 361.02000000000004C898.78 360.62000000000006 898.64 360.24000000000007 898.39 359.95000000000005C897.84 359.29 896.88 359.21000000000004 896.23 359.80000000000007ZM884.76 365.09C885.04 364.48999999999995 885.23 363.88 885.31 363.09C885.3199999999999 362.92999999999995 885.3299999999999 362.78 885.3399999999999 362.63C885.2499999999999 361.03 886.28 359.55 887.93 359.13C889.1099999999999 358.84 889.92 359.25 890.14 359.32C890.9499999999999 359.56 891.8 359.65 892.64 359.57L892.64 359.58C893.28 359.4 893.87 359.15 894.52 358.7C895.1 358.3 894.5799999999999 358.59 895.79 357.8C897.4499999999999 356.73 897.99 355.74 898.16 354.06C898.2099999999999 353.59 898.17 353.12 898.27 352.66C898.35 352.33000000000004 898.48 352 898.65 351.70000000000005C898.9 351.26000000000005 899.26 350.88000000000005 899.68 350.59000000000003C900.3499999999999 350.13000000000005 901.17 349.94000000000005 901.9399999999999 350.02000000000004C904.16 350.24000000000007 905.55 352.51000000000005 904.79 354.57000000000005C904.39 355.66 903.75 356.05000000000007 903.0699999999999 356.49000000000007C901.3799999999999 357.58000000000004 900.8699999999999 358.56000000000006 900.6999999999999 360.24000000000007C900.6299999999999 360.9600000000001 900.77 361.64000000000004 900.2099999999999 362.5900000000001C899.4599999999999 363.9000000000001 898.04 364.4100000000001 896.93 364.2800000000001C896.5 364.24000000000007 896.28 364.1500000000001 895.8399999999999 364.0200000000001C893.91 363.4300000000001 892.8399999999999 363.6800000000001 891.4499999999999 364.6400000000001C890.79 365.0900000000001 890.7399999999999 365.1700000000001 890.2099999999999 365.5200000000001C888.54 366.6400000000001 888.0199999999999 367.5900000000001 887.8499999999999 369.2700000000001C887.8 369.7300000000001 887.8399999999999 370.2000000000001 887.7399999999999 370.6600000000001C887.6599999999999 371.00000000000006 887.5299999999999 371.3200000000001 887.3599999999999 371.62000000000006C887.1099999999999 372.06000000000006 886.7499999999999 372.45000000000005 886.3299999999999 372.7300000000001C883.6299999999999 374.57000000000005 880.0699999999999 371.8500000000001 881.2199999999999 368.75000000000006C881.6199999999999 367.6600000000001 882.2599999999999 367.28000000000003 882.9399999999999 366.83000000000004C883.66 366.37000000000006 884.27 365.78000000000003 884.76 365.09000000000003Z " fill="#333333" fill-opacity="1" transform="matrix(1,0,0,1,-880,-350)"></path></svg>