<svg id="SvgjsSvg1000" xmlns="http://www.w3.org/2000/svg" version="1.1" xmlns:xlink="http://www.w3.org/1999/xlink" xmlns:svgjs="http://svgjs.com/svgjs" width="25" height="17"><defs id="SvgjsDefs1001"></defs><path id="SvgjsPath1007" d="M269.94 366.6L267.76 360.23L276.52 358.93ZM261.62 366.93L265.85 361.79L267.68 367.65000000000003ZM278.1 354.52L278.43 356.15L267.02 357.84L266.5 356.19L264.34 356.92L264.97999999999996 358.97L258.28 367.1C257.98999999999995 367.45000000000005 257.91999999999996 367.93 258.09 368.35C258.26 368.77000000000004 258.64 369.06 259.09 369.11L269.17999999999995 370.32L269.18999999999994 370.31C269.2699999999999 370.32 269.34999999999997 370.33 269.42999999999995 370.33C269.78 370.33 270.12999999999994 370.18 270.35999999999996 369.9L279.11999999999995 359.53L279.59999999999997 361.91999999999996L281.86999999999995 361.4L280.36999999999995 354Z " fill="#333333" fill-opacity="1" transform="matrix(1,0,0,1,-257,-354)"></path></svg>