<svg id="SvgjsSvg1023" xmlns="http://www.w3.org/2000/svg" version="1.1" xmlns:xlink="http://www.w3.org/1999/xlink" xmlns:svgjs="http://svgjs.com/svgjs" width="24" height="17"><defs id="SvgjsDefs1024"></defs><path id="SvgjsPath1025" d="M455.57 426L451.33 426C450.88 426 450.45 426.22 450.18 426.58L447.75 429.9L442.25 429.9L439.82 426.58C439.55 426.21999999999997 439.12 426 438.67 426L434.43 426C433.64 426 433 426.64 433 427.43C433 428.22 433.64 428.86 434.43 428.86L437.94 428.86L440.37 432.18C440.64 432.54 441.07 432.76 441.52 432.76L443.57 432.76L443.57 442.33L446.43 442.33L446.43 432.76L448.48 432.76C448.93 432.76 449.36 432.53999999999996 449.63 432.18L452.06 428.86L455.57 428.86C456.36 428.86 457 428.22 457 427.43C457 426.64 456.36 426 455.57 426 " fill="#333333" fill-opacity="1" transform="matrix(1,0,0,1,-433,-426)"></path></svg>