<svg id="SvgjsSvg1011" xmlns="http://www.w3.org/2000/svg" version="1.1" xmlns:xlink="http://www.w3.org/1999/xlink" xmlns:svgjs="http://svgjs.com/svgjs" width="24" height="24"><defs id="SvgjsDefs1012"></defs><path id="SvgjsPath1013" d="M645.22 364.68L645.13 363.25C645.14 363.24 645.15 363.23 645.15 363.22L646.4399999999999 362.58000000000004L650.8 365.48C650.56 366.03000000000003 650.26 366.54 649.91 367.02000000000004ZM646.44 361.42L645.1500000000001 360.78000000000003C645.1500000000001 360.77000000000004 645.1400000000001 360.76000000000005 645.1300000000001 360.75000000000006L645.2200000000001 359.32000000000005L649.9100000000002 356.9800000000001C650.2600000000002 357.4600000000001 650.5600000000002 357.9700000000001 650.8000000000002 358.5200000000001ZM640.78 359.32L640.87 360.75C640.86 360.76 640.85 360.77 640.85 360.78L639.5600000000001 361.41999999999996L635.2 358.52C635.44 357.96999999999997 635.74 357.46 636.09 356.97999999999996ZM639.56 362.58L640.8499999999999 363.21999999999997C640.8499999999999 363.22999999999996 640.8599999999999 363.23999999999995 640.8699999999999 363.24999999999994L640.7799999999999 364.67999999999995L636.0899999999998 367.0199999999999C635.7399999999998 366.5399999999999 635.4399999999998 366.0299999999999 635.1999999999998 365.4799999999999ZM642.11 370.5L641.79 365.27L642.98 364.47999999999996C642.99 364.47999999999996 642.99 364.47999999999996 643 364.47999999999996C643.01 364.47999999999996 643.01 364.47999999999996 643.02 364.47999999999996L644.21 365.27L643.89 370.5C643.6 370.53 643.3 370.55 643 370.55C642.7 370.55 642.4 370.53000000000003 642.11 370.5ZM643.89 353.5L644.21 358.73L643.02 359.52000000000004C643.01 359.52000000000004 643.01 359.52000000000004 643 359.52000000000004C642.99 359.52000000000004 642.99 359.52000000000004 642.98 359.52000000000004L641.79 358.73L642.11 353.5C642.4 353.47 642.7 353.45 643 353.45C643.3 353.45 643.6 353.46999999999997 643.89 353.5ZM634.66 360.14L638.39 362L634.66 363.86C634.53 363.26 634.4499999999999 362.64 634.4499999999999 362C634.4499999999999 361.36 634.53 360.74 634.66 360.14ZM651.34 363.86L647.61 362L651.34 360.14C651.47 360.74 651.5500000000001 361.36 651.5500000000001 362C651.5500000000001 362.64 651.47 363.26 651.34 363.86ZM640.7 358.01L637.22 355.71C638.13 354.87 639.23 354.22999999999996 640.44 353.84999999999997ZM645.3 365.99L648.78 368.29C647.87 369.13 646.77 369.77000000000004 645.56 370.15000000000003ZM645.3 358.01L645.56 353.84999999999997C646.77 354.22999999999996 647.8699999999999 354.86999999999995 648.78 355.71ZM640.7 365.99L640.44 370.15000000000003C639.23 369.77000000000004 638.1300000000001 369.13000000000005 637.22 368.29ZM643 363.41C642.22 363.41 641.59 362.78000000000003 641.59 362C641.59 361.22 642.22 360.59 643 360.59C643.78 360.59 644.41 361.21999999999997 644.41 362C644.41 362.78 643.78 363.41 643 363.41ZM634.82 359.51C634.86 359.38 634.9100000000001 359.25 634.95 359.12L637.6700000000001 360.93ZM648.33 360.93L651.0500000000001 359.12C651.09 359.25 651.1400000000001 359.38 651.1800000000001 359.51ZM637.67 363.07L634.9499999999999 364.87C634.91 364.75 634.8599999999999 364.62 634.8199999999999 364.49ZM651.18 364.49C651.14 364.62 651.0899999999999 364.75 651.05 364.87L648.3299999999999 363.07ZM646.6 366.08L649.51 367.53C649.42 367.63 649.33 367.73999999999995 649.24 367.83ZM636.76 367.83C636.67 367.74 636.58 367.63 636.49 367.53L639.4 366.08ZM639.4 357.92L636.49 356.47C636.58 356.37 636.67 356.26000000000005 636.76 356.17ZM649.24 356.17C649.33 356.26 649.42 356.37 649.51 356.47L646.6 357.92ZM644.74 356.84L644.53 353.59C644.67 353.61999999999995 644.8 353.65 644.93 353.67999999999995ZM644.74 367.16L644.9300000000001 370.32000000000005C644.8000000000001 370.35 644.6700000000001 370.38000000000005 644.5300000000001 370.41ZM641.26 356.84L641.0699999999999 353.67999999999995C641.1999999999999 353.65 641.3299999999999 353.61999999999995 641.4699999999999 353.59ZM641.26 367.16L641.47 370.41C641.33 370.38000000000005 641.2 370.35 641.07 370.32000000000005ZM645.56 362L645.4699999999999 362.06C645.4699999999999 362.04 645.4799999999999 362.02 645.4799999999999 362C645.4799999999999 361.98 645.4699999999999 361.96 645.4699999999999 361.94ZM640.44 362L640.5300000000001 361.94C640.5300000000001 361.96 640.5200000000001 361.98 640.5200000000001 362C640.5200000000001 362.02 640.5300000000001 362.04 640.5300000000001 362.06ZM644.28 364.21L644.1899999999999 364.16999999999996C644.2199999999999 364.15 644.2499999999999 364.12999999999994 644.29 364.10999999999996ZM644.28 359.79L644.29 359.89000000000004C644.25 359.87000000000006 644.2199999999999 359.85 644.1899999999999 359.83000000000004ZM641.72 364.21L641.72 364.10999999999996C641.75 364.12999999999994 641.78 364.15 641.8100000000001 364.16999999999996ZM641.72 359.79L641.8100000000001 359.83000000000004C641.7800000000001 359.85 641.7500000000001 359.87000000000006 641.72 359.89000000000004ZM654.3 362C654.2199999999999 361.78 654.2099999999999 361.34 654.26 361.11C654.31 360.89 654.58 360.63 654.58 360.63C654.58 360.63 654.83 360.36 654.87 360.12C654.9 359.87 654.8100000000001 359.41 654.69 359.19C654.5600000000001 358.98 654.22 358.84 654.22 358.84C654.22 358.84 653.88 358.7 653.74 358.51C653.61 358.32 653.45 357.90999999999997 653.44 357.68C653.4200000000001 357.44 653.59 357.12 653.59 357.12C653.59 357.12 653.75 356.79 653.71 356.54C653.6600000000001 356.3 653.4300000000001 355.89000000000004 653.25 355.72C653.06 355.56 652.69 355.52000000000004 652.69 355.52000000000004C652.69 355.52000000000004 652.33 355.50000000000006 652.1400000000001 355.36C651.95 355.23 651.6800000000001 354.88 651.5900000000001 354.66C651.5000000000001 354.45000000000005 651.5600000000002 354.09000000000003 651.5600000000002 354.09000000000003C651.5600000000002 354.09000000000003 651.6100000000001 353.72 651.5000000000002 353.50000000000006C651.3800000000002 353.28000000000003 651.0300000000002 352.96000000000004 650.8100000000002 352.86000000000007C650.5800000000002 352.7700000000001 650.2200000000001 352.8500000000001 650.2200000000001 352.8500000000001C650.2200000000001 352.8500000000001 649.8600000000001 352.94000000000005 649.6400000000001 352.86000000000007C649.4200000000001 352.7900000000001 649.0500000000001 352.55000000000007 648.9000000000001 352.37000000000006C648.7500000000001 352.19000000000005 648.7 351.83000000000004 648.7 351.83000000000004C648.7 351.83000000000004 648.63 351.46000000000004 648.46 351.29C648.2800000000001 351.12 647.84 350.92 647.6 350.90000000000003C647.35 350.88000000000005 647.0400000000001 351.06000000000006 647.0400000000001 351.06000000000006C647.0400000000001 351.06000000000006 646.7300000000001 351.26000000000005 646.4900000000001 351.26000000000005C646.2600000000001 351.26000000000005 645.8300000000002 351.14000000000004 645.6400000000001 351.02000000000004C645.44 350.89000000000004 645.2700000000001 350.57000000000005 645.2700000000001 350.57000000000005C645.2700000000001 350.57000000000005 645.1000000000001 350.24000000000007 644.8800000000001 350.13000000000005C644.6600000000001 350.02000000000004 644.19 349.97 643.94 350.02000000000004C643.7 350.07000000000005 643.46 350.35 643.46 350.35C643.46 350.35 643.22 350.63 643 350.70000000000005C642.78 350.78000000000003 642.34 350.79 642.11 350.74000000000007C641.89 350.69000000000005 641.63 350.4200000000001 641.63 350.4200000000001C641.63 350.4200000000001 641.36 350.1700000000001 641.12 350.13000000000005C640.87 350.1000000000001 640.41 350.19000000000005 640.19 350.31000000000006C639.98 350.44000000000005 639.84 350.7800000000001 639.84 350.7800000000001C639.84 350.7800000000001 639.7 351.12000000000006 639.51 351.2600000000001C639.3199999999999 351.3900000000001 638.91 351.5500000000001 638.68 351.5600000000001C638.4399999999999 351.5800000000001 638.12 351.41000000000014 638.12 351.41000000000014C638.12 351.41000000000014 637.79 351.2500000000001 637.54 351.29000000000013C637.3 351.34000000000015 636.89 351.5700000000001 636.7199999999999 351.7500000000001C636.56 351.9400000000001 636.5199999999999 352.3100000000001 636.5199999999999 352.3100000000001C636.5199999999999 352.3100000000001 636.4999999999999 352.67000000000013 636.3599999999999 352.8600000000001C636.2299999999999 353.0500000000001 635.8799999999999 353.3200000000001 635.6599999999999 353.41000000000014C635.4499999999998 353.5000000000001 635.0899999999998 353.4400000000001 635.0899999999998 353.4400000000001C635.0899999999998 353.4400000000001 634.7199999999998 353.3900000000001 634.4999999999998 353.5000000000001C634.2799999999997 353.6200000000001 633.9599999999998 353.97000000000014 633.8599999999998 354.1900000000001C633.7699999999998 354.42000000000013 633.8499999999998 354.7800000000001 633.8499999999998 354.7800000000001C633.8499999999998 354.7800000000001 633.9399999999998 355.1400000000001 633.8599999999998 355.36000000000007C633.7899999999997 355.5800000000001 633.5499999999998 355.95000000000005 633.3699999999998 356.1000000000001C633.1899999999998 356.25000000000006 632.8299999999998 356.30000000000007 632.8299999999998 356.30000000000007C632.8299999999998 356.30000000000007 632.4599999999998 356.37000000000006 632.2899999999998 356.5400000000001C632.1199999999999 356.7200000000001 631.9199999999998 357.1600000000001 631.8999999999999 357.4000000000001C631.8799999999999 357.6500000000001 632.0599999999998 357.9600000000001 632.0599999999998 357.9600000000001C632.0599999999998 357.9600000000001 632.2599999999999 358.2700000000001 632.2599999999999 358.5100000000001C632.2599999999999 358.7400000000001 632.1399999999999 359.17000000000013 632.0199999999999 359.3600000000001C631.8999999999999 359.5600000000001 631.5699999999998 359.73000000000013 631.5699999999998 359.73000000000013C631.5699999999998 359.73000000000013 631.2399999999998 359.90000000000015 631.1299999999998 360.1200000000001C631.0199999999998 360.34000000000015 630.9699999999998 360.8100000000001 631.0199999999998 361.0600000000001C631.0699999999997 361.3000000000001 631.3499999999998 361.54000000000013 631.3499999999998 361.54000000000013C631.3499999999998 361.54000000000013 631.6299999999998 361.78000000000014 631.6999999999998 362.0000000000001C631.7799999999999 362.22000000000014 631.7899999999998 362.66000000000014 631.7399999999998 362.8900000000001C631.6899999999998 363.1100000000001 631.4199999999997 363.3700000000001 631.4199999999997 363.3700000000001C631.4199999999997 363.3700000000001 631.1699999999997 363.6400000000001 631.1299999999998 363.8800000000001C631.0999999999998 364.1300000000001 631.1899999999997 364.5900000000001 631.3099999999997 364.8100000000001C631.4399999999997 365.0200000000001 631.7799999999997 365.16000000000014 631.7799999999997 365.16000000000014C631.7799999999997 365.16000000000014 632.1199999999998 365.3000000000001 632.2599999999998 365.4900000000001C632.3899999999998 365.6800000000001 632.5499999999997 366.09000000000015 632.5599999999997 366.3200000000001C632.5799999999997 366.5600000000001 632.4099999999997 366.8800000000001 632.4099999999997 366.8800000000001C632.4099999999997 366.8800000000001 632.2499999999998 367.2100000000001 632.2899999999997 367.4600000000001C632.3399999999997 367.7000000000001 632.5699999999997 368.11000000000007 632.7499999999998 368.2800000000001C632.9399999999998 368.4400000000001 633.3099999999997 368.4800000000001 633.3099999999997 368.4800000000001C633.3099999999997 368.4800000000001 633.6699999999997 368.50000000000006 633.8599999999997 368.6400000000001C634.0499999999997 368.7700000000001 634.3199999999997 369.1200000000001 634.4099999999996 369.3400000000001C634.4999999999997 369.55000000000007 634.4399999999996 369.9100000000001 634.4399999999996 369.9100000000001C634.4399999999996 369.9100000000001 634.3899999999996 370.2800000000001 634.4999999999995 370.50000000000006C634.6199999999995 370.7200000000001 634.9699999999996 371.0400000000001 635.1899999999996 371.14000000000004C635.4199999999996 371.23 635.7799999999996 371.15000000000003 635.7799999999996 371.15000000000003C635.7799999999996 371.15000000000003 636.1399999999996 371.06000000000006 636.3599999999997 371.14000000000004C636.5799999999997 371.21000000000004 636.9499999999997 371.45000000000005 637.0999999999997 371.63000000000005C637.2499999999997 371.81000000000006 637.2999999999997 372.1700000000001 637.2999999999997 372.1700000000001C637.2999999999997 372.1700000000001 637.3699999999998 372.5400000000001 637.5399999999997 372.7100000000001C637.7199999999997 372.8800000000001 638.1499999999997 373.0800000000001 638.3999999999997 373.1000000000001C638.6499999999997 373.12000000000006 638.9699999999998 372.94000000000005 638.9699999999998 372.94000000000005C638.9699999999998 372.94000000000005 639.2799999999997 372.74000000000007 639.5099999999998 372.74000000000007C639.7399999999998 372.74000000000007 640.1699999999997 372.86000000000007 640.3599999999998 372.9800000000001C640.5599999999998 373.1000000000001 640.7299999999998 373.43000000000006 640.7299999999998 373.43000000000006C640.7299999999998 373.43000000000006 640.8999999999997 373.76000000000005 641.1199999999998 373.87000000000006C641.3399999999998 373.9800000000001 641.8099999999998 374.0300000000001 642.0599999999998 373.9800000000001C642.2999999999998 373.93000000000006 642.5399999999998 373.6500000000001 642.5399999999998 373.6500000000001C642.5399999999998 373.6500000000001 642.7799999999999 373.3700000000001 642.9999999999999 373.30000000000007C643.2199999999999 373.2200000000001 643.6599999999999 373.2100000000001 643.8899999999999 373.26000000000005C644.1099999999999 373.31000000000006 644.3699999999999 373.58000000000004 644.3699999999999 373.58000000000004C644.3699999999999 373.58000000000004 644.6399999999999 373.83000000000004 644.8799999999999 373.87000000000006C645.1299999999999 373.90000000000003 645.5899999999999 373.81000000000006 645.8099999999998 373.69000000000005C646.0199999999999 373.56000000000006 646.1599999999999 373.22 646.1599999999999 373.22C646.1599999999999 373.22 646.2999999999998 372.88000000000005 646.4899999999999 372.74C646.68 372.61 647.0899999999999 372.45 647.3199999999999 372.44C647.56 372.42 647.8799999999999 372.59 647.8799999999999 372.59C647.8799999999999 372.59 648.2099999999999 372.75 648.4599999999999 372.71C648.6999999999999 372.65999999999997 649.1099999999999 372.43 649.28 372.25C649.4399999999999 372.06 649.48 371.69 649.48 371.69C649.48 371.69 649.5 371.33 649.64 371.14C649.77 370.95 650.12 370.68 650.34 370.59C650.5500000000001 370.5 650.9100000000001 370.56 650.9100000000001 370.56C650.9100000000001 370.56 651.2800000000001 370.61 651.5000000000001 370.5C651.7200000000001 370.38 652.0400000000001 370.03 652.1400000000001 369.81C652.2300000000001 369.58 652.1500000000001 369.22 652.1500000000001 369.22C652.1500000000001 369.22 652.0600000000001 368.86 652.1400000000001 368.64000000000004C652.2100000000002 368.42 652.45 368.05000000000007 652.6300000000001 367.90000000000003C652.8100000000001 367.75000000000006 653.1700000000001 367.70000000000005 653.1700000000001 367.70000000000005C653.1700000000001 367.70000000000005 653.5400000000001 367.63000000000005 653.71 367.46000000000004C653.88 367.28000000000003 654.08 366.84000000000003 654.1 366.6C654.12 366.35 653.94 366.03000000000003 653.94 366.03000000000003C653.94 366.03000000000003 653.74 365.72 653.74 365.49C653.74 365.26 653.86 364.83 653.98 364.64C654.11 364.44 654.4300000000001 364.27 654.4300000000001 364.27C654.4300000000001 364.27 654.7600000000001 364.09999999999997 654.8700000000001 363.88C654.9800000000001 363.65999999999997 655.0300000000001 363.19 654.9800000000001 362.94C654.9300000000002 362.7 654.6500000000001 362.46 654.6500000000001 362.46C654.6500000000001 362.46 654.3700000000001 362.21999999999997 654.3000000000001 362Z " fill="#333333" fill-opacity="1" transform="matrix(1,0,0,1,-631,-350)"></path></svg>