<svg id="SvgjsSvg1008" xmlns="http://www.w3.org/2000/svg" version="1.1" xmlns:xlink="http://www.w3.org/1999/xlink" xmlns:svgjs="http://svgjs.com/svgjs" width="14" height="24"><defs id="SvgjsDefs1009"></defs><path id="SvgjsPath1010" d="M448.4 362.07L441.23999999999995 362.07L441.23999999999995 361.24C441.23999999999995 359.55 442.61999999999995 358.16 444.31999999999994 358.16L445.31999999999994 358.16C447.0199999999999 358.16 448.3999999999999 359.55 448.3999999999999 361.24ZM443.18 349L443.18 355.03C442.49 355.15 441.84000000000003 355.39 441.24 355.71999999999997L441.03000000000003 354.59999999999997L438.00000000000006 354.59999999999997L438.00000000000006 372.99999999999994L441.24000000000007 372.99999999999994L441.24000000000007 365.30999999999995L448.4000000000001 365.30999999999995L448.4000000000001 372.99999999999994L451.6400000000001 372.99999999999994L451.6400000000001 354.59999999999997L448.6200000000001 354.59999999999997L448.4000000000001 355.71999999999997C447.7900000000001 355.38 447.1300000000001 355.14 446.4200000000001 355.02L446.4200000000001 349Z " fill="#333333" fill-opacity="1" transform="matrix(1,0,0,1,-438,-349)"></path></svg>