<svg id="SvgjsSvg1026" xmlns="http://www.w3.org/2000/svg" version="1.1" xmlns:xlink="http://www.w3.org/1999/xlink" xmlns:svgjs="http://svgjs.com/svgjs" width="24" height="21"><defs id="SvgjsDefs1027"></defs><path id="SvgjsPath1028" d="M651.35 429.63C647.7900000000001 426.14 643.16 424.86 638.3000000000001 424.76C642.8800000000001 423.25 649.1300000000001 425.13 651.35 429.63ZM648.45 431.42C644.5500000000001 428.16 640.0400000000001 427.56 635.1500000000001 427.33000000000004C639.6700000000001 425.96000000000004 645.8600000000001 427.04 648.45 431.42ZM637.58 434.46L641.3100000000001 432.90999999999997L644.96 433.53C643.5500000000001 435.52 642.1800000000001 437.11999999999995 640.6 438.10999999999996C639.57 437.05999999999995 638.51 435.77 637.58 434.46ZM643.28 432.04C640.36 430.75 637.4599999999999 431.53000000000003 634.42 431.74C636.8299999999999 430.12 641.27 429.34000000000003 643.28 432.04ZM631 424.26C631 424.26 631.31 425.23 631.63 425.78999999999996C632.74 427.71 633.59 429.09999999999997 632.13 432.90999999999997L634.36 433.88C636.4 437.4 639.78 441.13 642.07 442.35C642.25 442.45000000000005 642.44 442.49 642.63 442.49C643.06 442.49 643.48 442.26 643.6899999999999 441.86C643.9999999999999 441.28000000000003 643.78 440.55 643.1999999999999 440.24C642.9699999999999 440.11 642.7199999999999 439.95 642.4599999999999 439.76C644.4399999999999 438.34 646.0699999999999 436.21999999999997 647.78 433.65L654.85 431.33C651.98 424.90999999999997 650.59 422.66999999999996 640.48 422C636.34 423.84 635.4200000000001 424.05 631 424.26Z " fill="#333333" fill-opacity="1" transform="matrix(1,0,0,1,-631,-422)"></path></svg>