<svg id="SvgjsSvg1017" xmlns="http://www.w3.org/2000/svg" version="1.1" xmlns:xlink="http://www.w3.org/1999/xlink" xmlns:svgjs="http://svgjs.com/svgjs" width="24" height="18"><defs id="SvgjsDefs1018"></defs><path id="SvgjsPath1019" d="M263.81 433.58C265.38 433.84 266.91 433.65999999999997 268.38 433.16999999999996L270.18 441.93999999999994L273.35 441.28999999999996L271.38 431.65999999999997C271.8 431.38 272.21999999999997 431.08 272.62 430.76C273.8 429.81 274.63 429.13 276.33 428.95C277.4 429.38 282.21 429.42 281.93 427.55C281.43 424.14 278.25 425.01 276.17 425.37C271.19 426.23 268.38 426.91 265.15000000000003 426.91C263.6 426.91 261.76000000000005 426.18 260.86 426C259.17 425.67 257.89 426.43 258.01 428.1C258.21999999999997 431.02000000000004 260.78 433.07000000000005 263.81 433.58000000000004 " fill="#333333" fill-opacity="1" transform="matrix(1,0,0,1,-258,-424)"></path></svg>